<svg xmlns="http://www.w3.org/2000/svg" viewBox="0 0 1204.96 394.69"><defs><style>.cls-1,.cls-4{font-size:176.15px;font-family:Lato-Black, Lato;font-weight:800;}.cls-1,.cls-4,.cls-6{fill:#fff;}.cls-1{letter-spacing:-0.02em;}.cls-2,.cls-4{letter-spacing:-0.01em;}.cls-3{letter-spacing:-0.02em;}.cls-5{fill:#e0e0e0;}</style></defs><g id="Layer_2" data-name="Layer 2"><g id="Logo"><text class="cls-1" transform="translate(458.79 175.39)">c<tspan class="cls-2" x="82.35" y="0">o</tspan><tspan class="cls-3" x="182.93" y="0">n</tspan><tspan class="cls-2" x="279.82" y="0">fianza</tspan></text><text class="cls-4" transform="translate(461.79 310.36)">a tu lado</text><path class="cls-5" d="M47.9,103.15l69.92,20.43a101.91,101.91,0,0,0,30.42,4L126.48,121l47.19-27.43a15.58,15.58,0,0,1,16,.21l3.8,2.35-10.84,4.73s-9.15,2.24-12.38,21.83A121.45,121.45,0,0,1,163.49,147s-7.82,16.37,5.3,19.91,25.37-10.32,31.41-22.85a66.37,66.37,0,0,0,4.73-12l30.16,5.58a58.76,58.76,0,0,1,19.68,7.48s35.65,21.54,47.54,28.71c2.82,1.71,12.54,8.68,5.51,22.35-4,7.82-13.58,4.08-19.54,1.32s-36.11-17.78-36.11-17.78,34.5,19.73,40.85,29.49c4.75,7.28,2.32,14-1,16.45-3.48,2.59-8,4.24-17.34-.55-9.63-4.94-27.6-13.59-27.6-13.59s15,10.33,20,14.45c3.73,3,6.15,9.07,2,14.82-6.8,9.52-24.4.33-24.4.33l-19-9.61s25.09,13.44,13,25.29c-5.28,5.18-15.09,1.2-18.23-.72a19.47,19.47,0,0,0,2.67-11.21c-.34-3.39-2-8.22-8.16-12a16.86,16.86,0,0,0-8.74-2.81,11.37,11.37,0,0,0-6.35,1.88,18,18,0,0,0,.46-3.48c.09-3.9-1.26-9.33-8.24-13A19.06,19.06,0,0,0,183.3,213h0c-8,0-12.82,5.85-14.41,7.77a66.86,66.86,0,0,0-4.72,7.52,15.17,15.17,0,0,0-1.9-5.71c-3.22-5.55-9.6-8.37-19-8.37h0a23.94,23.94,0,0,0-10,1.91c-32.76-13.51-79.26-28.84-119.81-32.34C4.94,145.65-6.11,72.46,4.09,0,113.6,1.19,258.17,41.44,359.51,96.69l-29.95,3C252,63.36,149.74,34.91,49.41,26.7A469.3,469.3,0,0,0,47.9,103.15Z"/><path class="cls-6" d="M118.71,394.69C73.56,342.13,35.59,274.77,15.65,193.08a320.45,320.45,0,0,1,50.42,9.27C83.39,257.83,111.2,304.92,144,342c83.53-26.25,166.14-86.89,207.85-161.92l-36.4,1.29s-1.91-7.31-10.47-12l-47.54-28.71A63.63,63.63,0,0,0,236,132.46l-30.4-5.63c0-5.28-2.88-9.35-11-10.94,0,0,9.29,4.57,5,14.9s-12.77,28.58-26,31c-10.61,1.92-5.45-11.21-5.45-11.21s6.48-15.63,7.81-26.68,4.72-16.37,9.88-18.43a181.24,181.24,0,0,0,24.18-11.21c11.06-6.19,16.95-1.92,22,1.18l34.65,19.9s11.33,5.89,8,19.91c0,0,7.61-10.83,0-21.67l97.41-9.8c9,5.22,17.64,10.54,25.8,16C366.1,258.9,224.08,360.09,118.71,394.69ZM104.09,228.41c6.23,2.22,13.77-2.43,18.37-10.69-8.59-3.44-17.22-6.74-25.73-9.81C94.83,217.46,97.72,226.14,104.09,228.41Zm36.33,18.34h0c3.4,0,12.92-1.58,16.67-8.13,1.46-2.56,7.65-19.13-13.82-19.13C124.92,219.5,130.2,236,130.2,236S132,246.75,140.42,246.75Zm56.52,17.06a8.47,8.47,0,0,0,5.31,1.89,8.32,8.32,0,0,0,5.78-2.36c10.15-9.52,14.35-19.85,4.32-26a11.62,11.62,0,0,0-6-2c-3.76,0-5.87,3-7.18,5.35s-5.2,9.63-5.2,9.63C192,253.65,190.87,258.81,196.94,263.81Zm-27.66-8.88a14.91,14.91,0,0,0,5.16,1c11,0,16-14.38,17.76-18.25,2-4.43,6.75-12.73-2.44-17.6a13.66,13.66,0,0,0-6.46-1.78h0c-5.39,0-8.81,4-10.37,5.87-2.1,2.55-8.19,14.06-8.19,14.06S158.43,250.94,169.28,254.93Z"/></g></g></svg>