<?xml version="1.0" encoding="utf-8"?>
<!-- Generator: Adobe Illustrator 24.0.2, SVG Export Plug-In . SVG Version: 6.00 Build 0)  -->
<svg version="1.1" id="Capa_1" xmlns="http://www.w3.org/2000/svg" xmlns:xlink="http://www.w3.org/1999/xlink" x="0px" y="0px"
	 viewBox="0 0 749.2 245.4" style="enable-background:new 0 0 749.2 245.4;" xml:space="preserve">
<style type="text/css">
	.st0{fill:#FFFFFF;}
	.st1{font-family:'Arial-BoldMT';}
	.st2{font-size:109.52px;}
	.st3{letter-spacing:-2;}
	.st4{letter-spacing:-1;}
</style>
<g id="Layer_2">
	<g id="Logo">
		<text transform="matrix(1 0 0 1 285.26 109.05)" class="st0 st1 st2 st3">c</text>
		<text transform="matrix(1 0 0 1 336.46 109.05)" class="st0 st1 st2 st4">o</text>
		<text transform="matrix(1 0 0 1 399 109.05)" class="st0 st1 st2 st3">n</text>
		<text transform="matrix(1 0 0 1 459.24 109.05)" class="st0 st1 st2 st4">fianza</text>
		<text transform="matrix(1 0 0 1 287.12 192.97)" class="st0 st1 st2 st4">a tu lado</text>
		<path class="st0" d="M29.8,64.1l43.5,12.7c6.1,1.8,12.5,2.6,18.9,2.5l-13.5-4.1L108,58.2c3.1-1.8,6.9-1.8,10,0.1l2.4,1.5l-6.7,3
			c0,0-5.7,1.4-7.7,13.6c-0.9,5.2-2.3,10.2-4.2,15.1c0,0-4.9,10.2,3.3,12.4s15.8-6.4,19.5-14.2c1.2-2.4,2.2-4.9,2.9-7.5l18.8,3.5
			c4.3,0.8,8.5,2.4,12.2,4.7l29.5,17.8c1.8,1.1,7.8,5.4,3.4,13.9c-2.5,4.9-8.4,2.5-12.1,0.8s-22.4-11-22.4-11s21.4,12.3,25.4,18.3
			c2.9,4.5,1.4,8.7-0.6,10.2s-4.9,2.6-10.8-0.4c-6-3.1-17.2-8.4-17.2-8.4s9.3,6.4,12.5,9c2.9,2.2,3.4,6.3,1.3,9.2
			c-4.2,5.9-15.2,0.2-15.2,0.2l-11.8-6c0,0,15.6,8.4,8.1,15.7c-3.3,3.2-9.4,0.8-11.3-0.4c1.2-2.1,1.8-4.6,1.7-7
			c-0.2-2.1-1.3-5.1-5.1-7.4c-1.6-1.1-3.5-1.7-5.5-1.8c-1.4,0-2.8,0.4-4,1.2c0.2-0.7,0.3-1.4,0.3-2.2c0-2.4-0.8-5.8-5.1-8.1
			c-1.7-0.9-3.6-1.4-5.5-1.5l0,0c-5,0-8,3.6-9,4.8c-1.1,1.5-2.1,3.1-2.9,4.7c-0.1-1.2-0.5-2.5-1.2-3.5c-2-3.5-6-5.2-11.8-5.2l0,0
			c-2.1,0-4.2,0.4-6.2,1.2c-20.3-8.4-49.2-17.9-74.4-20.1C3.1,90.6-3.8,45,2.5,0c68.1,0.7,158,25.8,221,60.1L204.9,62
			C156.7,39.4,93.1,21.7,30.7,16.6C29.1,32.4,28.8,48.3,29.8,64.1z"/>
		<path class="st0" d="M73.8,245.4c-31-36.1-52.9-79.1-64.1-125.3c10.6,1.1,21.1,3,31.4,5.8c9.9,32,26.4,61.6,48.5,86.8
			c51.9-16.3,103.3-54,129.2-100.7l-22.6,0.8c-1.1-3.2-3.5-5.9-6.5-7.5l-29.6-17.9c-4.1-2.5-8.6-4.2-13.3-5.1l-18.9-3.5
			c0-3.3-1.8-5.8-6.9-6.8c3.4,1.7,4.8,5.8,3.1,9.3c-2.7,6.4-7.9,17.8-16.1,19.3c-6.6,1.2-3.4-7-3.4-7s4-9.7,4.9-16.6
			s2.9-10.2,6.2-11.5c5.2-2,10.2-4.3,15-7c6.9-3.8,10.5-1.2,13.7,0.7l21.5,12.4c4.3,2.5,6.4,7.6,5,12.4c0,0,4.7-6.7,0-13.5l60.6-6.1
			c5.6,3.2,11,6.6,16,9.9C227.6,161,139.3,223.9,73.8,245.4z M64.7,142c3.9,1.4,8.6-1.5,11.4-6.6c-5.3-2.1-10.7-4.2-16-6.1
			C59,135.2,60.8,140.6,64.7,142z M87.3,153.4L87.3,153.4c2.1,0,8-1,10.4-5.1c0.9-1.6,4.8-11.9-8.6-11.9c-11.4,0-8.2,10.3-8.2,10.3
			S82.1,153.4,87.3,153.4L87.3,153.4z M122.4,164c2,1.7,5,1.6,6.9-0.3c6.3-5.9,8.9-12.4,2.7-16.2c-1.1-0.8-2.4-1.2-3.7-1.3
			c-2.3,0-3.7,1.9-4.5,3.3s-3.2,6-3.2,6C119.4,157.7,118.7,160.9,122.4,164z M105.3,158.5c1,0.4,2.1,0.6,3.2,0.6c6.8,0,10-9,11-11.4
			c1.2-2.8,4.2-7.9-1.5-11c-1.2-0.7-2.6-1.1-4-1.1l0,0c-3.3,0-5.5,2.5-6.4,3.6c-1.3,1.6-5.1,8.7-5.1,8.7S98.5,156,105.3,158.5
			L105.3,158.5z"/>
	</g>
</g>
</svg>
