<svg xmlns="http://www.w3.org/2000/svg" xmlns:xlink="http://www.w3.org/1999/xlink" viewBox="0 0 749.2 245.4"><defs><style>.cls-1,.cls-5{font-size:109.52px;fill:#58595b;font-family:Lato-Black, Lato;font-weight:800;}.cls-1{letter-spacing:-0.02em;}.cls-2,.cls-5{letter-spacing:-0.01em;}.cls-3{letter-spacing:-0.02em;}.cls-4{letter-spacing:-0.01em;}.cls-6{fill:#002561;}.cls-7{fill:url(#linear-gradient);}</style><linearGradient id="linear-gradient" x1="37.33" y1="208.92" x2="209.59" y2="36.65" gradientUnits="userSpaceOnUse"><stop offset="0.25" stop-color="#00a1e4"/><stop offset="0.85" stop-color="#0072bc"/></linearGradient></defs><g id="Layer_2" data-name="Layer 2"><g id="Logo"><text class="cls-1" transform="translate(285.26 109.05)">c<tspan class="cls-2" x="51.2" y="0">o</tspan><tspan class="cls-3" x="113.74" y="0">n</tspan><tspan class="cls-4" x="173.98" y="0">fianza</tspan></text><text class="cls-5" transform="translate(287.12 192.97)">a tu lado</text><path class="cls-6" d="M29.79,64.13,73.26,76.84a63.62,63.62,0,0,0,18.91,2.47L78.64,75.23,108,58.17a9.7,9.7,0,0,1,10,.13l2.36,1.46-6.73,3s-5.69,1.39-7.7,13.57a75.72,75.72,0,0,1-4.22,15.12s-4.86,10.18,3.3,12.38,15.77-6.42,19.53-14.21a41.53,41.53,0,0,0,2.94-7.48l18.75,3.47a36.62,36.62,0,0,1,12.24,4.65L188,108.06c1.75,1.07,7.79,5.4,3.42,13.9-2.5,4.86-8.44,2.54-12.15.82s-22.45-11-22.45-11,21.45,12.26,25.4,18.33c2.95,4.53,1.44,8.7-.62,10.23s-4.95,2.64-10.77-.35c-6-3.06-17.17-8.44-17.17-8.44s9.3,6.42,12.46,9a6.62,6.62,0,0,1,1.27,9.21c-4.23,5.92-15.17.21-15.17.21l-11.81-6s15.6,8.35,8.1,15.72c-3.28,3.22-9.38.75-11.33-.45a12.13,12.13,0,0,0,1.66-7c-.21-2.11-1.27-5.11-5.07-7.45A10.57,10.57,0,0,0,128.3,143a7.17,7.17,0,0,0-4,1.16,10.81,10.81,0,0,0,.29-2.16c0-2.42-.79-5.8-5.13-8.1a11.83,11.83,0,0,0-5.54-1.48h0c-5,0-8,3.64-9,4.83a42.76,42.76,0,0,0-2.94,4.67,9.36,9.36,0,0,0-1.17-3.54c-2-3.46-6-5.21-11.8-5.21h0a15,15,0,0,0-6.21,1.19C62.52,126,33.6,116.47,8.39,114.29,3.07,90.56-3.8,45.05,2.54,0c68.09.74,158,25.77,221,60.12L204.91,62C156.69,39.4,93.1,21.71,30.72,16.6A289.66,289.66,0,0,0,29.79,64.13Z"/><path class="cls-7" d="M73.81,245.4A301.13,301.13,0,0,1,9.73,120.05a200,200,0,0,1,31.35,5.76,237.6,237.6,0,0,0,48.48,86.83c51.93-16.33,103.3-54,129.23-100.68l-22.63.8a13.4,13.4,0,0,0-6.51-7.49L160.09,87.42a39.68,39.68,0,0,0-13.33-5.06l-18.9-3.5c0-3.28-1.79-5.81-6.87-6.8a7,7,0,0,1,3.12,9.26c-2.66,6.42-7.94,17.77-16.13,19.25-6.6,1.19-3.4-7-3.4-7s4-9.71,4.86-16.59,2.94-10.18,6.15-11.46a112.29,112.29,0,0,0,15-7c6.88-3.85,10.54-1.19,13.66.74l21.54,12.37a10.81,10.81,0,0,1,5,12.38s4.74-6.74,0-13.48l60.57-6.09c5.6,3.24,11,6.56,16,9.93C227.63,161,139.33,223.89,73.81,245.4ZM64.72,142c3.88,1.38,8.56-1.51,11.42-6.65-5.34-2.14-10.7-4.19-16-6.1C59,135.21,60.76,140.61,64.72,142Zm22.59,11.4h0c2.12,0,8-1,10.37-5.06.91-1.59,4.75-11.89-8.6-11.89-11.43,0-8.15,10.27-8.15,10.27S82.05,153.42,87.31,153.42ZM122.45,164a5.17,5.17,0,0,0,6.89-.28c6.32-5.92,8.93-12.35,2.69-16.18a7.27,7.27,0,0,0-3.73-1.26c-2.34,0-3.65,1.85-4.46,3.33s-3.24,6-3.24,6C119.38,157.71,118.68,160.92,122.45,164Zm-17.2-5.51a9.34,9.34,0,0,0,3.21.61c6.84,0,10-9,11-11.35,1.24-2.76,4.2-7.92-1.51-11a8.6,8.6,0,0,0-4-1.1h0c-3.35,0-5.48,2.48-6.45,3.65-1.3,1.58-5.09,8.74-5.09,8.74S98.51,156,105.25,158.51Z"/></g></g></svg>